<?xml version="1.0" standalone="no"?>
<!DOCTYPE svg PUBLIC "-//W3C//DTD SVG 20010904//EN"
 "http://www.w3.org/TR/2001/REC-SVG-20010904/DTD/svg10.dtd">
<svg version="1.0" xmlns="http://www.w3.org/2000/svg"
 width="300.000000pt" height="300.000000pt" viewBox="0 0 300.000000 300.000000"
 preserveAspectRatio="xMidYMid meet">

<g transform="translate(0.000000,300.000000) scale(0.100000,-0.100000)"
fill="#5a0004" stroke="none">
<path d="M910 2904 c0 -11 14 -48 31 -82 48 -97 154 -181 267 -212 l44 -11 -9
-42 c-16 -85 0 -167 37 -187 13 -7 23 -3 39 16 15 17 28 23 39 19 48 -20 109
-17 187 11 145 51 248 35 324 -51 17 -20 58 -89 90 -153 69 -137 80 -149 230
-277 139 -119 127 -85 -25 68 -94 94 -107 112 -163 226 -34 68 -75 140 -90
160 -65 82 -231 146 -317 123 -23 -6 -64 -25 -90 -42 -99 -62 -227 -16 -241
88 l-5 40 39 -5 c67 -9 97 21 117 112 5 24 2 22 -17 -15 -46 -89 -94 -87 -253
12 -138 86 -171 113 -204 172 -21 35 -30 45 -30 30z"/>
<path d="M881 2724 c-1 -96 -6 -157 -17 -195 -30 -104 -165 -293 -257 -362
-79 -59 -132 -114 -156 -162 -12 -25 -42 -122 -65 -218 -24 -95 -53 -190 -64
-212 -11 -22 -59 -96 -107 -165 -48 -69 -103 -152 -121 -185 -67 -121 -106
-291 -89 -382 7 -37 8 -34 41 77 47 158 85 230 215 410 61 85 129 191 150 235
34 71 40 92 47 185 8 95 12 113 47 178 42 81 159 213 202 230 16 6 65 13 110
15 91 6 150 26 75 27 -54 0 -78 12 -86 44 -8 32 18 109 55 164 67 100 74 121
73 217 -1 69 -7 108 -26 165 l-26 75 -1 -141z"/>
<path d="M2771 2809 c-40 -5 -87 -16 -104 -24 -16 -8 -40 -15 -51 -15 -117 0
-205 -113 -175 -223 14 -55 72 -112 128 -127 87 -23 169 12 209 90 46 90 11
193 -82 236 -42 20 -47 24 -30 31 29 12 120 9 137 -5 31 -26 157 -317 157
-361 0 -14 -16 -64 -35 -109 -19 -46 -46 -125 -60 -175 -75 -266 -159 -483
-224 -584 -20 -32 -57 -96 -82 -142 -58 -110 -100 -158 -144 -167 -40 -7 -38
-20 5 -29 49 -11 68 2 99 68 16 34 57 94 92 132 103 114 201 346 239 563 29
161 54 243 106 339 24 46 44 91 44 102 0 10 -11 47 -24 82 -13 35 -29 108 -35
162 -15 127 -37 171 -84 166 -7 -1 -45 -5 -86 -10z m-114 -99 c21 -13 36 -32
44 -58 40 -134 -139 -218 -211 -100 -67 110 56 226 167 158z"/>
<path d="M2730 2413 c0 -10 5 -35 10 -55 10 -35 7 -44 -54 -155 -71 -131 -142
-240 -246 -383 -60 -82 -159 -250 -147 -250 2 0 24 30 49 68 25 37 103 137
173 222 155 189 201 257 254 381 46 108 49 125 23 134 -11 3 -24 17 -30 30
-13 29 -32 33 -32 8z"/>
<path d="M1850 2174 c0 -52 23 -103 78 -170 81 -101 92 -123 92 -177 0 -55
-25 -110 -74 -165 -80 -89 -77 -145 14 -267 78 -105 80 -118 44 -247 -23 -84
-12 -160 40 -276 34 -74 36 -86 36 -178 0 -123 -13 -243 -44 -404 -14 -69 -27
-147 -30 -175 l-5 -50 13 40 c8 22 30 78 49 125 45 108 57 176 57 314 0 134
-13 229 -42 316 -28 85 -26 136 11 244 42 123 41 176 -5 278 -20 44 -34 82
-31 84 2 2 21 -16 41 -40 60 -73 126 -136 165 -155 73 -37 79 -33 30 18 -41
43 -107 133 -201 275 -34 50 -34 56 -3 131 32 78 34 165 4 215 -12 19 -59 71
-105 115 -54 53 -91 97 -104 128 -24 54 -30 58 -30 21z"/>
<path d="M808 1763 c-9 -10 -35 -56 -58 -102 -23 -47 -53 -102 -66 -122 -13
-21 -40 -78 -60 -126 -79 -191 -139 -291 -243 -406 -33 -37 -61 -74 -61 -82 0
-8 12 -17 28 -21 73 -16 99 -32 190 -116 53 -50 138 -118 187 -151 50 -34 126
-92 170 -129 86 -74 146 -108 188 -108 16 0 67 28 131 70 157 105 153 116 -9
21 -124 -73 -194 -53 -391 112 -176 146 -324 281 -324 294 0 7 -6 13 -14 13
-31 0 -29 41 5 93 95 149 239 449 239 496 0 6 2 11 4 11 2 0 52 -33 109 -72
58 -40 151 -102 207 -138 104 -67 215 -168 307 -279 38 -47 49 -67 40 -73 -11
-7 -3 -12 16 -9 4 0 7 -9 7 -22 0 -28 -33 -78 -127 -190 -40 -48 -73 -92 -73
-97 0 -5 16 2 36 15 32 22 132 63 362 149 94 36 94 50 2 117 -87 63 -124 106
-186 216 -113 201 -192 265 -388 314 -44 11 -96 29 -116 39 -42 21 -133 117
-125 131 3 5 25 14 48 20 58 16 100 1 197 -72 128 -94 151 -104 250 -104 73 0
93 4 140 28 95 49 150 114 150 178 l0 32 -31 -46 c-59 -90 -193 -128 -323 -93
-52 14 -81 32 -161 97 -156 127 -219 155 -257 112z"/>
<path d="M46 731 c-9 -15 457 -294 570 -341 41 -17 142 -49 225 -70 107 -28
168 -50 209 -75 32 -19 62 -35 68 -35 6 0 23 11 39 24 55 46 98 60 172 57 13
-1 38 -17 57 -38 19 -20 37 -34 40 -30 4 4 -13 27 -38 52 -40 40 -51 45 -89
45 -26 0 -66 -11 -97 -25 -65 -30 -70 -30 -97 -5 -16 15 -44 23 -101 30 -90
10 -165 33 -297 91 -148 65 -256 125 -352 194 -55 39 -100 65 -116 65 -42 0
-125 29 -144 50 -19 21 -40 26 -49 11z"/>
</g>
</svg>
