<?xml version="1.0" standalone="no"?>
<!DOCTYPE svg PUBLIC "-//W3C//DTD SVG 20010904//EN"
 "http://www.w3.org/TR/2001/REC-SVG-20010904/DTD/svg10.dtd">
<svg version="1.0" xmlns="http://www.w3.org/2000/svg"
 width="300.000000pt" height="300.000000pt" viewBox="0 0 300.000000 300.000000"
 preserveAspectRatio="xMidYMid meet">

<g transform="translate(0.000000,300.000000) scale(0.100000,-0.100000)"
fill="#5a0004" stroke="none">
<path d="M1110 2984 c-36 -7 -94 -28 -130 -46 -53 -27 -76 -48 -128 -113 -102
-128 -117 -142 -214 -189 -102 -49 -151 -93 -192 -170 -32 -61 -34 -124 -6
-221 23 -80 26 -145 7 -145 -6 0 -43 9 -81 20 -112 32 -93 13 39 -39 16 -6 5
-15 -63 -51 -132 -68 -172 -131 -172 -272 0 -46 6 -72 20 -96 11 -18 27 -65
35 -103 8 -39 19 -78 25 -88 15 -29 78 -80 105 -86 14 -3 36 -7 49 -10 14 -3
46 -33 78 -72 81 -102 99 -130 105 -166 4 -28 1 -37 -20 -54 -38 -29 -17 -43
66 -43 l69 0 -35 -47 c-45 -62 -90 -153 -111 -222 -15 -50 -23 -202 -11 -189
3 3 15 39 27 79 31 112 67 183 161 314 117 164 144 221 152 320 7 84 45 185
69 185 7 0 36 7 64 15 60 18 114 61 132 105 10 25 18 30 46 30 18 0 36 5 39
10 4 6 -8 10 -29 10 -33 0 -36 3 -36 28 0 18 10 38 25 52 14 13 29 40 34 59
10 37 26 170 23 184 -7 28 -2 119 8 157 16 60 80 121 193 184 169 96 240 173
254 276 6 40 5 42 -16 35 -20 -6 -21 -3 -21 47 0 81 -13 86 -74 24 -67 -68
-122 -86 -392 -126 -262 -38 -326 -57 -387 -111 -54 -47 -62 -37 -15 16 63 73
193 115 418 135 144 13 220 30 288 64 52 26 105 72 114 96 7 20 39 -8 80 -72
17 -26 33 -46 36 -44 2 3 -3 29 -12 60 -25 84 -96 156 -211 212 -146 71 -267
88 -405 58z m340 -110 c57 -16 135 -52 128 -59 -2 -2 -26 3 -53 12 -33 10 -90
16 -165 17 -130 1 -144 -3 -321 -106 -52 -30 -116 -67 -144 -82 l-50 -27 42
38 c179 164 241 205 341 223 59 11 150 4 222 -16z m-695 -326 c-73 -80 -90
-115 -104 -211 -10 -69 -51 -177 -68 -177 -9 0 4 212 15 241 16 40 121 157
166 184 23 14 43 25 44 25 2 0 -22 -28 -53 -62z m824 -14 c-65 -70 -175 -104
-411 -129 -176 -18 -202 -24 -264 -60 -57 -33 -85 -76 -129 -198 -30 -85 -78
-190 -60 -132 4 11 20 69 36 130 34 124 54 161 109 205 75 60 120 72 310 86
96 7 198 18 225 25 56 13 169 64 186 85 6 8 14 14 17 14 3 0 -5 -12 -19 -26z
m15 -45 c-33 -37 -99 -77 -160 -97 -41 -14 -112 -24 -229 -32 -163 -11 -204
-19 -320 -65 -11 -4 -3 4 17 19 49 34 125 52 278 66 185 16 317 52 390 105 41
31 49 32 24 4z m-334 -284 c0 -2 -8 -20 -17 -40 -12 -24 -19 -31 -25 -23 -4 7
-8 -35 -8 -93 0 -111 -16 -186 -49 -228 l-18 -24 -13 49 c-7 27 -14 90 -17
139 -4 74 -1 96 14 124 22 42 133 122 133 96z m-180 -9 c0 -3 -15 -28 -32 -57
-44 -69 -43 -134 0 -278 39 -128 40 -135 7 -127 -30 8 -34 -10 -5 -19 11 -3
20 -12 20 -19 0 -25 -126 -126 -148 -118 -18 6 -34 50 -27 73 4 11 12 16 21
12 7 -3 14 -1 14 5 0 12 -24 22 -50 22 -26 0 -60 -47 -60 -82 0 -32 21 -78 44
-97 11 -10 13 -19 5 -38 -5 -15 -21 -74 -35 -132 -25 -108 -48 -176 -66 -198
-8 -10 -38 13 -124 93 -118 110 -154 163 -154 225 0 64 27 90 169 163 158 82
224 142 276 250 36 75 85 232 85 272 0 12 10 30 22 38 22 16 38 20 38 12z
m-441 -106 c-36 -68 -61 -90 -164 -146 -113 -61 -142 -87 -159 -148 -10 -34
-25 -59 -40 -70 -14 -8 -27 -25 -31 -36 -11 -36 -25 -11 -25 46 0 90 31 132
121 163 30 10 73 28 95 39 49 25 124 104 124 132 0 13 13 26 38 39 21 11 44
27 52 36 26 32 21 5 -11 -55z m331 -14 c-22 -109 -140 -251 -270 -326 -41 -23
-104 -60 -140 -81 -36 -20 -75 -48 -87 -61 -30 -32 -53 -100 -53 -159 0 -27
-3 -49 -6 -49 -34 0 -83 78 -84 133 0 38 24 81 57 105 16 11 80 36 143 56 203
66 262 114 340 274 51 105 97 178 107 168 3 -2 0 -29 -7 -60z m-250 -131 c-34
-69 -82 -99 -211 -130 -61 -14 -116 -24 -122 -22 -19 6 62 43 137 61 38 9 85
25 106 36 38 20 100 82 100 102 0 6 3 9 6 5 4 -3 -4 -27 -16 -52z m485 -170
c-10 -19 -24 -35 -31 -35 -12 0 -12 6 2 33 9 17 21 38 27 46 19 23 20 -5 2
-44z m-145 -179 c0 -10 -32 -36 -43 -36 -7 0 -1 9 13 20 26 21 30 23 30 16z"/>
<path d="M1710 2548 c-6 -24 -34 -96 -62 -160 -48 -114 -49 -118 -41 -177 9
-59 9 -60 -19 -81 -15 -11 -28 -28 -28 -36 0 -9 -15 -35 -32 -57 -18 -23 -38
-50 -43 -61 -16 -32 -40 -30 -110 8 -35 20 -66 32 -69 28 -3 -5 -8 -27 -12
-49 -5 -34 -2 -45 16 -63 27 -27 43 -22 51 16 l6 29 13 -28 c19 -38 50 -43
133 -18 128 38 205 23 234 -46 11 -28 31 -196 33 -280 0 -7 12 -13 27 -13 l26
0 -21 23 c-25 27 -28 68 -10 162 15 82 1 117 -61 156 -49 31 -42 38 14 15 59
-25 69 -52 61 -165 l-7 -99 34 -26 c21 -17 46 -26 68 -26 l34 1 -27 20 c-35
26 -36 62 -7 164 40 136 12 196 -109 236 -36 12 -76 32 -89 45 -29 29 -26 45
32 174 24 52 45 102 48 110 5 13 5 13 6 0 0 -8 -8 -33 -18 -55 -27 -61 -44
-142 -37 -180 8 -41 40 -68 106 -90 56 -19 100 -56 100 -85 0 -11 5 -20 11
-20 18 0 4 78 -18 102 -10 12 -43 32 -73 45 -112 50 -121 79 -64 206 43 95 43
148 1 241 -34 73 -46 67 -18 -9 12 -31 21 -72 20 -93 l-1 -37 -9 45 c-10 54
-58 170 -70 170 -4 0 -13 -19 -19 -42z"/>
<path d="M2612 2110 c-49 -11 -49 -18 0 -13 33 4 49 0 66 -13 25 -21 122 -237
122 -272 0 -12 -12 -51 -26 -85 -15 -34 -44 -123 -66 -197 -50 -174 -108 -317
-162 -405 -24 -38 -55 -92 -69 -120 -28 -55 -59 -89 -97 -103 l-25 -10 27 -7
c40 -10 57 0 75 42 8 21 39 65 68 98 91 104 151 246 194 462 24 115 39 166 71
228 45 90 46 97 24 151 -9 21 -22 80 -29 132 -7 51 -19 99 -25 107 -14 16 -90
19 -148 5z"/>
<path d="M2512 2080 c-89 -13 -140 -116 -97 -196 20 -38 85 -74 132 -74 70 0
142 86 129 156 -8 42 -53 95 -92 109 -16 6 -48 8 -72 5z m43 -32 c29 -13 55
-55 55 -87 0 -12 -13 -35 -29 -53 -57 -64 -151 -29 -151 57 0 70 63 112 125
83z"/>
<path d="M2625 1798 c4 -18 8 -42 7 -53 0 -32 -103 -209 -196 -340 -77 -108
-154 -235 -143 -235 2 0 17 19 32 43 16 23 74 98 130 167 133 164 157 200 199
301 34 82 35 84 16 98 -11 7 -20 19 -20 26 0 7 -7 16 -16 19 -14 5 -15 1 -9
-26z"/>
<path d="M1954 1612 c2 -25 16 -59 31 -80 92 -129 95 -135 95 -174 0 -46 -15
-79 -64 -137 -20 -24 -36 -54 -36 -67 0 -36 24 -87 65 -141 46 -61 50 -79 29
-152 -22 -79 -15 -144 25 -238 21 -49 31 -88 31 -123 0 -75 -19 -232 -41 -339
-25 -122 -25 -164 0 -96 10 28 29 77 42 110 21 54 23 76 22 210 0 125 -4 161
-22 215 -27 84 -26 121 4 210 14 40 25 88 25 106 0 19 -11 59 -25 90 -28 63
-32 89 -9 59 53 -71 156 -155 191 -155 4 0 -11 19 -34 43 -41 43 -173 231
-173 247 0 5 9 32 20 60 22 56 26 120 9 153 -6 12 -42 54 -79 92 -37 39 -78
88 -89 110 l-22 40 5 -43z"/>
<path d="M1158 1313 c-23 -27 -132 -238 -168 -325 -38 -93 -96 -184 -161 -256
-27 -30 -49 -59 -49 -67 0 -7 17 -15 40 -19 32 -5 59 -24 132 -89 51 -46 118
-100 148 -120 30 -20 82 -59 115 -87 62 -53 123 -90 149 -90 17 0 188 112 181
118 -2 3 -36 -14 -75 -38 -62 -38 -76 -42 -116 -37 -28 3 -64 17 -97 39 -51
35 -222 179 -325 276 -61 56 -61 65 -12 137 37 54 122 226 150 302 l23 63 36
-29 c20 -15 95 -66 166 -113 131 -86 242 -188 300 -277 25 -37 26 -41 11 -70
-9 -16 -45 -65 -81 -108 -35 -42 -63 -78 -62 -79 1 -2 34 12 72 30 39 18 117
50 173 71 57 21 107 45 110 54 3 9 -5 22 -23 35 -73 52 -129 115 -173 194 -26
46 -61 101 -79 121 -39 46 -131 96 -209 114 -75 18 -110 36 -153 80 -45 48
-37 67 27 67 44 0 58 -6 123 -54 112 -81 133 -89 204 -84 33 3 79 15 101 26
52 27 104 85 104 118 0 24 -1 24 -37 -15 -46 -47 -104 -65 -186 -58 -65 6
-105 26 -186 96 -55 48 -125 91 -147 91 -6 0 -18 -8 -26 -17z"/>
<path d="M570 513 c0 -5 26 -23 58 -41 31 -17 116 -68 187 -112 142 -88 234
-127 370 -160 50 -12 116 -36 148 -53 48 -26 60 -30 75 -19 87 61 147 68 187
21 14 -17 28 -29 31 -26 3 3 -9 21 -26 41 -27 30 -39 36 -71 36 -21 0 -59 -10
-84 -22 l-45 -22 -20 22 c-16 16 -32 22 -66 22 -92 0 -346 108 -487 206 -60
42 -96 61 -140 70 -32 6 -66 19 -76 28 -18 17 -41 21 -41 9z"/>
</g>
</svg>
